<svg xmlns="http://www.w3.org/2000/svg" style="display: none;">
	<symbol id="left-arrow" viewBox="0 0 31.494 31.494"> 
	<title>left-arrow</title><path  d="M10.273,5.009c0.444-0.444,1.143-0.444,1.587,0c0.429,0.429,0.429,1.143,0,1.571l-8.047,8.047h26.554 c0.619,0,1.127,0.492,1.127,1.111c0,0.619-0.508,1.127-1.127,1.127H3.813l8.047,8.032c0.429,0.444,0.429,1.159,0,1.587 c-0.444,0.444-1.143,0.444-1.587,0l-9.952-9.952c-0.429-0.429-0.429-1.143,0-1.571L10.273,5.009z"/></symbol>

	<symbol id="twitter" viewBox="0 0 512 512">

	<title>twitter</title><path style="fill:#03A9F4;" d="M512,97.248c-19.04,8.352-39.328,13.888-60.48,16.576c21.76-12.992,38.368-33.408,46.176-58.016 c-20.288,12.096-42.688,20.64-66.56,25.408C411.872,60.704,384.416,48,354.464,48c-58.112,0-104.896,47.168-104.896,104.992 c0,8.32,0.704,16.32,2.432,23.936c-87.264-4.256-164.48-46.08-216.352-109.792c-9.056,15.712-14.368,33.696-14.368,53.056 c0,36.352,18.72,68.576,46.624,87.232c-16.864-0.32-33.408-5.216-47.424-12.928c0,0.32,0,0.736,0,1.152 c0,51.008,36.384,93.376,84.096,103.136c-8.544,2.336-17.856,3.456-27.52,3.456c-6.72,0-13.504-0.384-19.872-1.792 c13.6,41.568,52.192,72.128,98.08,73.12c-35.712,27.936-81.056,44.768-130.144,44.768c-8.608,0-16.864-0.384-25.12-1.44 C46.496,446.88,101.6,464,161.024,464c193.152,0,298.752-160,298.752-298.688c0-4.64-0.16-9.12-0.384-13.568 C480.224,136.96,497.728,118.496,512,97.248z"/></symbol>

	<symbol id="twitter-1" viewBox="1 -47 511.999 511">
	<title>twitter-1</title><path d="m161.019531 416.605469c193.21875 0 298.878907-160.074219 298.878907-298.878907 0-4.546874-.09375-9.074218-.296876-13.578124 20.507813-14.828126 38.335938-33.332032 52.398438-54.394532-18.820312 8.367188-39.078125 13.996094-60.324219 16.539063 21.6875-13.007813 38.339844-33.578125 46.191407-58.101563-20.296876 12.03125-42.773438 20.773438-66.703126 25.496094-19.167968-20.417969-46.460937-33.1875-76.679687-33.1875-58.007813 0-105.050781 47.042969-105.050781 105.03125 0 8.246094.921875 16.261719 2.722656 23.953125-87.304688-4.394531-164.722656-46.191406-216.527344-109.753906-9.019531 15.523437-14.222656 33.558593-14.222656 52.800781 0 36.441406 18.546875 68.617188 46.746094 87.4375-17.234375-.53125-33.421875-5.261719-47.574219-13.136719-.015625.441407-.015625.871094-.015625 1.339844 0 50.875 36.207031 93.351563 84.277344 102.976563-8.828125 2.402343-18.117188 3.695312-27.699219 3.695312-6.757813 0-13.34375-.664062-19.746094-1.894531 13.375 41.738281 52.15625 72.109375 98.132813 72.960937-35.953125 28.179688-81.246094 44.964844-130.46875 44.964844-8.46875 0-16.835938-.484375-25.058594-1.453125 46.488281 29.796875 101.695312 47.1875 161.023438 47.1875" fill="#1da1f2"/></symbol>

	<symbol id="facebook" viewBox="0 0 512 512">

	<title>facebook</title><path d="m512 256c0 141.386719-114.613281 256-256 256s-256-114.613281-256-256 114.613281-256 256-256 256 114.613281 256 256zm0 0" fill="#4a7aff"/><path d="m267.234375 511.738281c136.171875-5.878906 244.765625-118.121093 244.765625-255.738281 0-.996094-.027344-1.988281-.039062-2.984375l-177.699219-177.703125-190 198.59375 105.566406 105.566406-48.675781 66.183594zm0 0" fill="#0053bf"/><path d="m334.261719 75.3125v57.96875s-66.554688-9.660156-66.554688 33.277344v42.9375h60.113281l-7.511718 65.480468h-52.601563v170.679688h-66.554687v-170.679688l-56.894532-1.074218v-64.40625h55.820313v-49.378906s-3.683594-73.457032 68.703125-86.949219c30.058594-5.605469 65.480469 2.144531 65.480469 2.144531zm0 0" fill="#fff"/><path d="m334.261719 133.28125v-57.96875s-35.421875-7.75-65.480469-2.144531c-4.695312.875-9.0625 2.007812-13.136719 3.347656v369.140625h12.0625v-170.679688h52.597657l7.515624-65.480468h-60.113281s0 0 0-42.9375 66.554688-33.277344 66.554688-33.277344zm0 0" fill="#dce1eb"/></symbol>

	<symbol id="facebook-1" viewBox="0 0 512 512">
	<title>facebook-1</title><path style="fill:#1976D2;" d="M448,0H64C28.704,0,0,28.704,0,64v384c0,35.296,28.704,64,64,64h384c35.296,0,64-28.704,64-64V64 C512,28.704,483.296,0,448,0z"/><path style="fill:#FAFAFA;" d="M432,256h-80v-64c0-17.664,14.336-16,32-16h32V96h-64l0,0c-53.024,0-96,42.976-96,96v64h-64v80h64 v176h96V336h48L432,256z"/></symbol>

	<svg xmlns="http://www.w3.org/2000/svg" id="instagram" viewBox="0 0 48 48" ><path fill="#304ffe" d="M32,42H16c-5.5,0-10-4.5-10-10V16c0-5.5,4.5-10,10-10h16c5.5,0,10,4.5,10,10v16 C42,37.5,37.5,42,32,42z"/><path fill="#304ffe" fill-opacity=".29" d="M6,16v16c0,5.5,4.5,10,10,10h16c5.5,0,10-4.5,10-10V16c0-1-0.1-1.9-0.4-2.8 C36,8.7,28.8,6,21,6c-3.7,0-7.3,0.6-10.7,1.8C7.7,9.6,6,12.6,6,16z"/><path fill="#6200ea" d="M21,8c-5,0-9.6,1.2-13.8,3.2C6.4,12.7,6,14.3,6,16v16c0,5.5,4.5,10,10,10h16c5.5,0,10-4.5,10-10 V16.2C36.5,11.1,29.1,8,21,8z"/><path fill="#673ab7" d="M42,19c-5.3-5.5-12.7-9-21-9c-5.4,0-10.5,1.5-14.8,4.1C6.1,14.7,6,15.3,6,16v16c0,5.5,4.5,10,10,10 h16c5.5,0,10-4.5,10-10V19z"/><path fill="#8e24aa" d="M42,22c-4.9-6.1-12.5-10-21-10c-5.6,0-10.7,1.7-15,4.6V32c0,5.5,4.5,10,10,10h16c5.5,0,10-4.5,10-10 V22z"/><path fill="#c2185b" d="M42,32v-6.6C37.5,18.6,29.8,14,21,14c-5.6,0-10.8,1.9-15,5v13c0,5.5,4.5,10,10,10h16 C37.5,42,42,37.5,42,32z"/><path fill="#d81b60" d="M42,32v-2.4C38.4,21.6,30.4,16,21,16c-5.7,0-11,2.1-15,5.6V32c0,5.5,4.5,10,10,10h16 C37.5,42,42,37.5,42,32z"/><path fill="#f50057" d="M41.6,34.8C39.7,25.2,31.2,18,21,18c-5.9,0-11.2,2.4-15,6.3V32c0,5.5,4.5,10,10,10h16 C36.5,42,40.4,39,41.6,34.8z"/><path fill="#ff1744" d="M39.9,38C39.4,28,31.2,20,21,20c-6.1,0-11.5,2.9-15,7.4V32c0,5.5,4.5,10,10,10h16 C35.2,42,38.1,40.4,39.9,38z"/><path fill="#ff5722" d="M21,22c-6.5,0-12.1,3.6-15,9v1c0,5.5,4.5,10,10,10h16c2.2,0,4.3-0.7,5.9-2c0-0.3,0.1-0.7,0.1-1 C38,29.6,30.4,22,21,22z"/><path fill="#ff6f00" d="M21,24c-7,0-12.8,4.7-14.5,11.2c1.3,4,5.1,6.8,9.5,6.8h16c1.4,0,2.6-0.3,3.8-0.8 c0.1-0.7,0.2-1.5,0.2-2.2C36,30.7,29.3,24,21,24z"/><path fill="#ff9800" d="M21,26c-6.9,0-12.5,5.3-12.9,12c1.8,2.4,4.7,4,7.9,4h16c0.6,0,1.1-0.1,1.7-0.2 C33.9,40.9,34,40,34,39C34,31.8,28.2,26,21,26z"/><path fill="#ffc107" d="M31.6,42c0.3-1,0.4-2,0.4-3c0-6.1-4.9-11-11-11s-11,4.9-11,11c0,0.3,0,0.7,0.1,1 c1.7,1.2,3.7,2,5.9,2H31.6z"/><path fill="#ffd54f" d="M21,30c-5,0-9,4-9,9c0,0.8,0.1,1.6,0.3,2.3c1.1,0.5,2.4,0.7,3.7,0.7h13.5c0.3-0.9,0.5-1.9,0.5-3 C30,34,26,30,21,30z"/><path fill="#ffe082" d="M21,32.1c-3.9,0-7,3.1-7,7c0,1,0.2,1.9,0.6,2.8C15.1,42,15.5,42,16,42h11.4c0.4-0.9,0.6-1.9,0.6-2.9 C28,35.2,24.9,32.1,21,32.1z"/><path fill="#ffecb3" d="M21,34.1c-2.8,0-5,2.2-5,5c0,1.1,0.4,2.1,1,2.9H25c0.6-0.8,1-1.8,1-2.9C26,36.3,23.8,34.1,21,34.1z"/><path fill="#fff" d="M30,38H18c-4.4,0-8-3.6-8-8V18c0-4.4,3.6-8,8-8h12c4.4,0,8,3.6,8,8v12C38,34.4,34.4,38,30,38z M18,12c-3.3,0-6,2.7-6,6v12c0,3.3,2.7,6,6,6h12c3.3,0,6-2.7,6-6V18c0-3.3-2.7-6-6-6H18z"/><path fill="#fff" d="M24 31c-3.9 0-7-3.1-7-7 0-3.9 3.1-7 7-7 3.9 0 7 3.1 7 7C31 27.9 27.9 31 24 31zM24 19c-2.8 0-5 2.2-5 5s2.2 5 5 5 5-2.2 5-5S26.8 19 24 19zM32 16c0 .6-.4 1-1 1s-1-.4-1-1 .4-1 1-1S32 15.4 32 16z"/></svg>





	

	<symbol id="whatsapp" viewBox="0 0 455.731 455.731">
	<title>whatsapp</title><rect x="0" y="0" style="fill:#1BD741;" width="455.731" height="455.731"/><g> <path style="fill:#FFFFFF;" d="M68.494,387.41l22.323-79.284c-14.355-24.387-21.913-52.134-21.913-80.638 c0-87.765,71.402-159.167,159.167-159.167s159.166,71.402,159.166,159.167c0,87.765-71.401,159.167-159.166,159.167 c-27.347,0-54.125-7-77.814-20.292L68.494,387.41z M154.437,337.406l4.872,2.975c20.654,12.609,44.432,19.274,68.762,19.274 c72.877,0,132.166-59.29,132.166-132.167S300.948,95.321,228.071,95.321S95.904,154.611,95.904,227.488 c0,25.393,7.217,50.052,20.869,71.311l3.281,5.109l-12.855,45.658L154.437,337.406z"/> <path style="fill:#FFFFFF;" d="M183.359,153.407l-10.328-0.563c-3.244-0.177-6.426,0.907-8.878,3.037 c-5.007,4.348-13.013,12.754-15.472,23.708c-3.667,16.333,2,36.333,16.667,56.333c14.667,20,42,52,90.333,65.667 c15.575,4.404,27.827,1.435,37.28-4.612c7.487-4.789,12.648-12.476,14.508-21.166l1.649-7.702c0.524-2.448-0.719-4.932-2.993-5.98 l-34.905-16.089c-2.266-1.044-4.953-0.384-6.477,1.591l-13.703,17.764c-1.035,1.342-2.807,1.874-4.407,1.312 c-9.384-3.298-40.818-16.463-58.066-49.687c-0.748-1.441-0.562-3.19,0.499-4.419l13.096-15.15 c1.338-1.547,1.676-3.722,0.872-5.602l-15.046-35.201C187.187,154.774,185.392,153.518,183.359,153.407z"/> </g></symbol></svg>    